P2 20 15 255
162 152 143 133 124 114 105 95  86  77  67  58  48  39  29  20  11  1   0   0   
161 152 142 133 123 114 105 95  86  76  67  57  48  38  29  20  10  1   0   0   
161 151 142 255 255 255 255 95  85  76  66  57  47  38  29  19  10  0   0   0   
160 151 142 255 123 113 104 94  85  75  66  57  47  38  28  19  9   0   0   0   
160 151 141 255 122 113 103 94  84  75  66  56  47  37  28  18  9   0   0   0   
160 150 255 255 255 112 255 94  255 255 255 255 255 37  255 255 255 255 0   0   
159 150 140 255 121 112 103 93  255 74  255 55  255 36  255 0   0   255 0   0   
159 149 140 255 121 112 255 93  255 74  255 55  255 36  255 0   0   255 0   0   
158 149 140 255 121 111 255 92  255 73  255 55  255 36  255 0   0   255 0   0   
158 149 139 255 120 111 255 92  255 73  255 54  255 35  255 255 255 255 0   0   
158 148 139 129 120 110 101 92  82  73  63  54  44  35  25  16  7   255 0   0   
157 148 138 129 119 110 101 91  82  72  63  53  44  35  25  16  6   255 0   0   
157 147 138 129 119 110 100 91  81  72  62  53  44  34  255 255 255 255 0   0   
156 147 138 128 119 109 100 90  81  71  62  53  43  34  24  15  5   0   0   0   
156 147 137 128 118 109 99  90  81  71  62  52  43  33  24  14  5   0   0   0   
